<?xml version="1.0" encoding="UTF-8"?>
<svg viewBox="0 0 536.65 169.65" xmlns="http://www.w3.org/2000/svg">
<path d="m104.44 122.97h19.3v-83.9h-19.3v83.9z"/>
<path d="m296.98 122.97h19.3v-83.9h-19.3v83.9z"/>
<path d="m27.16,154.6h19.39V39.07h-19.39v115.54Z"/>
<path d="m219.03,123.89h20.09V39.07h-20.09v84.83Z"/>
<path d="m275.23,46.79c-3.64-5.8-9.33-7.68-15.79-7.9v84.91h19.48v-7.73c-.04-18.4-.09-36.84-.17-55.28,0-4.96-.87-9.75-3.51-14.01Z"/>
<path d="m199.21,53.21c-2.04-9.92-9.37-14.8-18.52-14.53v84.78h19.44c.04-.83.09-1.45.09-2.11-.04-20.2-.04-40.35-.13-60.55,0-2.55-.35-5.09-.87-7.6Z"/>
<path d="m81,47.85c-3.17-4.92-8.89-7.64-14.75-8.12v84.65c5.86-.61,11.32-3.16,14.36-7.82,3.17-4.83,4.51-10.27,5.29-15.85,1.61-11.72,1.47-23.49.35-35.21-.56-6.19-1.78-12.29-5.25-17.65Z"/>
<path d="m151.09,78.1c-4.86,2.41-8.24,6.32-9.67,11.72-1.95,7.55-1.87,15.06,1.04,22.35,3.12,7.86,10.5,12.25,18.52,11.2,0-16.38,0-32.62-.04-49.35-3.47,1.45-6.77,2.55-9.85,4.08Z"/>
<path d="m160.95 64.88v-26.04c-13.58 2.41-19.65 14.53-17.87 26.04h17.87z"/>
<path d="m426.48,39.09V15.05h-19.41v55.54l.04.5c.03,16.87.07,39.71.07,53.74h19.31V56.1h17.04v-17.01h-17.04Z"/>
<rect x="104.44" y="15.05" width="19.3" height="16.47"/>
<rect x="296.98" y="15.05" width="19.3" height="16.47"/>
<path d="m340.8,84.31c-4.86-2.41-8.24-6.32-9.67-11.72-1.95-7.55-1.87-13.33,1.04-20.62,2.73-6.88,9.95-11.2,17-11.2h1.52c0,16.38,0,30.89-.04,47.62-3.47-1.45-6.77-2.55-9.85-4.08Z"/>
<path transform="translate(684.39 229.86) rotate(180)" d="m332.54 106.7h2.83c9.09 0 16.47 7.38 16.47 16.47h-19.3v-16.47z"/>
<path d="m509.91,62.36c0-2.55-.35-5.09-.87-7.6-2.04-9.92-9.37-14.8-18.52-14.53v84.78h19.43c.04-.83.09-1.45.09-2.11-.04-20.2-.04-40.35-.13-60.55Z"/>
<path d="m460.93,79.66c-4.86,2.41-8.24,6.32-9.67,11.72-1.95,7.55-1.87,15.06,1.04,22.35,3.12,7.86,10.5,12.25,18.52,11.2,0-16.38,0-32.62-.04-49.35-3.47,1.45-6.77,2.55-9.85,4.08Z"/>
<path d="m472.2 66.44v-26.04c-13.58 2.41-19.65 14.53-17.87 26.04h17.87z"/>
<path d="m380.75,77.75c4.86,2.41,8.24,6.32,9.67,11.72,1.95,7.55,1.87,15.06-1.04,22.35-3.12,7.86-9.71,11.2-18.52,11.2,0-16.38,0-32.62.04-49.35,3.47,1.45,6.77,2.55,9.85,4.08Z"/>
<path d="m369.71 40.77h2.83c9.09 0 16.47 7.38 16.47 16.47h-19.3v-16.47z"/>
</svg>
