<?xml version="1.0" encoding="UTF-8"?>
<svg version="1.1" viewBox="0 0 3883 3883" xmlns="http://www.w3.org/2000/svg">
<path d="m1941.5 1315a626.55 626.55 0 0 0-626.55 626.55 626.55 626.55 0 0 0 626.55 626.55 626.55 626.55 0 0 0 626.55-626.55 626.55 626.55 0 0 0-626.55-626.55zm0.052 311.68c173.44 0.5733 313.87 141.3 313.87 314.87 0 173.61-140.48 314.36-313.97 314.87-173.44-0.5734-313.87-141.3-313.87-314.87 0-173.61 140.48-314.36 313.97-314.87z" stroke-width="1.3751"/>
<path d="m1942.5 784.29c-0.4154 0-0.8248 0.0273-1.2403 0.0273-0.2375-1.2e-4 -0.4694-0.0156-0.707-0.0156-2.5724 0-5.1014 0.17465-7.6699 0.1914-14.899 0.1225-29.751 0.44534-44.512 1.127-10.221 0.454-20.352 1.2259-30.502 1.9434-4.8773 0.35363-9.8058 0.5235-14.666 0.9375-0.055 0.0662-0.1175 0.12673-0.1719 0.19336-593.43 49.564-1059.7 546.58-1059.7 1152.8 0 569.12 410.96 1041.9 952.24 1138.8 0.2747 0.05 0.5513 0.095 0.8261 0.1445 15.743 2.8035 31.575 5.3186 47.531 7.4785 2.6566 0.364 5.3299 0.6697 7.9922 1.0157 14.251 1.8283 28.543 3.5054 42.951 4.8105 5.044 0.4652 10.135 0.7563 15.197 1.1563 12.487 0.9665 24.964 1.9523 37.559 2.5195 11.431 0.5335 22.961 0.6718 34.477 0.8711 6.1544 0.097 12.24 0.4648 18.418 0.4648 0.4157 0 0.8267-0.025 1.2422-0.025 0.2376 1e-4 0.4734 0.016 0.711 0.016 2.5724 0 5.1013-0.1746 7.6699-0.1914 14.899-0.1225 29.749-0.4474 44.51-1.1289 10.221-0.454 20.352-1.226 30.502-1.9434 4.8773-0.3536 9.8057-0.5198 14.666-0.9336 0.054-0.066 0.1177-0.1286 0.1719-0.1953 593.43-49.564 1059.7-546.58 1059.7-1152.8 0-569.12-410.97-1041.9-952.24-1138.7-0.2749-0.05-0.5492-0.0952-0.8242-0.14453-15.743-2.8035-31.573-5.3166-47.529-7.4766-2.6566-0.364-5.3317-0.66962-7.9942-1.0156-14.251-1.8282-28.543-3.5074-42.951-4.8125-5.0441-0.465-10.135-0.75405-15.197-1.1543-12.487-0.9665-24.963-1.9545-37.559-2.5215-11.431-0.53338-22.961-0.66964-34.477-0.86914-6.1544-0.0963-12.24-0.4668-18.418-0.4668zm0.068 144.75c5.9144 0 11.743 0.34663 17.633 0.44726 9.4107 0.18037 18.844 0.27569 28.19 0.71094 12.076 0.5385 24.044 1.4623 36.006 2.4199 2.9337 0.24075 5.888 0.40209 8.8145 0.66797 516.66 45.875 921.8 479.62 921.8 1008.2 0 559.16-453.29 1012.4-1012.4 1012.4-0.3407 0-0.6749-0.023-1.0156-0.023-0.3587 0-0.7115 0.027-1.0703 0.027-5.9144 0-11.744-0.3446-17.635-0.4453-9.4108-0.1802-18.841-0.2735-28.188-0.709-12.014-0.5357-23.924-1.4572-35.826-2.4082-3.006-0.2461-6.0308-0.4169-9.0293-0.6894-516.64-45.891-921.77-479.63-921.77-1008.2 0-559.16 453.3-1012.4 1012.4-1012.4 0.3407 0 0.6748 0.0234 1.0156 0.0234 0.3586 0 0.7115-0.0273 1.0703-0.0273z" stroke-width="1.4377"/>
<circle cx="1941.5" cy="1941.5" r="358.69" fill="#ff2a2a" fill-rule="evenodd" stop-color="#000000" stroke-linecap="square" stroke-linejoin="round" stroke-width=".16192" style="paint-order:markers stroke fill"/>
<path d="m1942.6 1635.4c-0.3866 0-0.7586 0.058-1.145 0.059-0.3479 0-0.6821-0.051-1.0302-0.051-169.04 0-306.08 137.04-306.08 306.08 0 169.05 137.04 306.09 306.08 306.09 0.3868 0 0.7586-0.057 1.145-0.059 0.3478 0 0.6821 0.054 1.0302 0.054 169.04 0 306.08-137.04 306.08-306.08 0-169.05-137.04-306.09-306.08-306.09zm-1.0302 39.861c146.54 0.6247 265.13 119.55 265.13 266.22 0 146.73-118.65 265.67-265.25 266.23-146.54-0.6247-265.13-119.55-265.13-266.22 0-146.73 118.65-265.67 265.25-266.23z" stroke-width="1.5"/>
<g transform="matrix(1.02 0 0 1.02 -33.954 -30.768)" stroke-width="1.3839">
<path d="m1347 1298.6c-357.03 343.74-249.87 806.39-249.87 806.39s-22.579-469.52 279.49-772.89c302.07-303.37 758.93-217.79 758.93-217.79s-431.52-159.45-788.55 184.29z" stop-color="#000000" style="-inkscape-stroke:none;font-variation-settings:normal"/>
<path d="m2542.1 2559.1c357.03-343.74 225.66-789.01 225.66-789.01s46.786 452.14-255.28 755.51c-302.07 303.37-783.14 235.17-783.14 235.17s455.73 142.07 812.76-201.67z" stop-color="#000000" style="-inkscape-stroke:none;font-variation-settings:normal"/>
</g>
<g transform="matrix(.98 0 0 .98 47.378 45.462)" stroke-width="1.1848">
<path d="m2468 2491.5c214.08-214.08 173.51-488.03 173.51-488.03s21.204 239.28-198.87 459.35-494.38 185.56-494.38 185.56 305.65 57.196 519.73-156.89z" stop-color="#000000" style="-inkscape-stroke:none;font-variation-settings:normal"/>
<path d="m1397.6 1377.9c-214.08 214.08-173.51 488.03-173.51 488.03s-21.204-239.28 198.87-459.35 494.38-185.56 494.38-185.56-305.65-57.196-519.73 156.89z" stop-color="#000000" style="-inkscape-stroke:none;font-variation-settings:normal"/>
</g>
<g transform="matrix(1.02 0 0 1.02 -33.954 -30.768)" stroke-width="1.3839">
<path d="m1347 1298.6c-357.03 343.74-249.87 806.39-249.87 806.39s-22.579-469.52 279.49-772.89c302.07-303.37 758.93-217.79 758.93-217.79s-431.52-159.45-788.55 184.29z" stop-color="#000000" style="-inkscape-stroke:none;font-variation-settings:normal"/>
<path d="m2542.1 2559.1c357.03-343.74 225.66-789.01 225.66-789.01s46.786 452.14-255.28 755.51c-302.07 303.37-783.14 235.17-783.14 235.17s455.73 142.07 812.76-201.67z" stop-color="#000000" style="-inkscape-stroke:none;font-variation-settings:normal"/>
</g>
</svg>
